<?xml version="1.0" encoding="utf-8"?>
<!-- Generator: Adobe Illustrator 26.0.1, SVG Export Plug-In . SVG Version: 6.00 Build 0)  -->
<svg version="1.1" id="Layer_1" xmlns="http://www.w3.org/2000/svg" xmlns:xlink="http://www.w3.org/1999/xlink" x="0px" y="0px"
	 viewBox="0 0 1080 1080" style="enable-background:new 0 0 1080 1080;" xml:space="preserve">
<style type="text/css">
	.st0{fill:#FFFFFF;}
	.st1{fill:none;}
</style>
<path class="st0" d="M264.5,476.2h-8.2v49.2h8.2c4.1,0,6.5-2.2,6.5-7.8V484C271.1,478.4,268.6,476.2,264.5,476.2z M722.7,74.4
	C666.1,52.2,604.5,40,540,40C263.9,40,40,263.9,40,540s223.9,500,500,500c64.5,0,126.1-12.2,182.7-34.4V74.4z M189.4,600.4
	c0,24.7-23.8,35.4-42.4,35.4H96.3v-194h50.7c18.7,0,42.4,10.7,42.4,35.4V600.4z M276.9,635.8L264,557.5h-7.7v78.3h-38.8v-194h50.2
	c18.7,0,41.2,10.7,41.2,35.4v43.4c0,8.7-5.6,15.4-14.5,20.4l20.1,94.8H276.9z M421.7,600.1c0,19.6-17.5,38.1-43.2,38.1
	c-25.7,0-44.9-18.4-44.9-38.1V441.8H371v157.4c0,3.4,3.4,5.8,7.5,5.8c4.1,0,7.5-2.4,7.5-5.8V441.8h35.6V600.1z M625.4,441.8h39
	v159.6h37.3v34.4h-76.4V441.8z M595.8,635.8H557V512.4l-24.3,123.4h-25.5l-21.8-123.7v123.7h-34.9v-194h59.2l14.3,88.5l15.3-88.5
	h56.5V635.8z M143.8,476.2h-8.7v125.4h8.7c4.1,0,6.5-2.2,6.5-7.8V484C150.3,478.4,147.9,476.2,143.8,476.2z M761.5,988.3
	C926.5,906.7,1040,736.6,1040,540S926.5,173.3,761.5,91.7V988.3z M888.3,635.8h-34l-32.7-98.7v98.7h-32.5v-194h35.4l31.3,100.4
	V441.8h32.5V635.8z M981.4,517.9v34.4h-24.7v49h37.6v34.4h-76.4v-194h76.4v32h-37.6v44.1H981.4z"/>
<rect class="st1" width="1080" height="1080"/>
</svg>
